<svg xmlns="http://www.w3.org/2000/svg" width="64" height="64" viewBox="0 0 64 64">
  <defs>
    <radialGradient id="bg" cx="50%" cy="40%" r="85%">
      <stop offset="0%" stop-color="#F7E3C8"/>
      <stop offset="100%" stop-color="#A5642A"/>
    </radialGradient>
    <linearGradient id="chestnut" x1="0%" y1="0%" x2="100%" y2="100%">
      <stop offset="0%" stop-color="#6D3B10"/>
      <stop offset="100%" stop-color="#C77E3D"/>
    </linearGradient>
  </defs>
  <rect width="64" height="64" rx="14" fill="url(#bg)"/>
  <path d="M21 30 C18 24, 22 16, 31 16 C40 16, 44 24, 42 30 C52 33, 52 45, 38 50 C32 52, 28 52, 22 50 C10 44, 12 34, 21 30 Z" fill="url(#chestnut)"/>
  <path d="M32 18 C28 18, 26 22, 26 26 C26 31, 31 34, 36 34 C38 34, 40 32, 40 30 C40 25, 36 18, 32 18 Z" fill="#F0C096" opacity="0.65"/>
  <path d="M24 32 C23 35, 24 39, 28 41 C31 43, 36 43, 39 41 C43 39, 44 35, 42 32" stroke="#7A4A23" stroke-width="2" fill="none" stroke-linecap="round"/>
  <path d="M34 46 C30 48, 26 48, 22 46" stroke="#7A4A23" stroke-width="3" fill="none" stroke-linecap="round"/>
  <circle cx="36" cy="30" r="3" fill="#F6D2A3" opacity="0.85"/>
  <circle cx="28" cy="36" r="2" fill="#FFFFFF" opacity="0.35"/>
</svg>
